# xmcd
#
# Track frame offsets:
# 150
# 14213
# 29486
# 46508
# 60786
# 78870
# 94191
# 110045
# 127254
# 140026
# 159573
# 173695
# 192930
# 209224
# 223086
# 243745
# 257232
# 269245
# 282120
# 296004
#
# Disc length: 4167 seconds
#
#
# Revision: 3
# Processed by: cddbd v1.5.2PL0 Copyright (c) Steve Scherf et al.
# Submitted via: FreeRIP 2.96 
#
DISCID=42104514
DTITLE=Raça Negra - Novo Millennium
DYEAR=2005
DGENRE=Pagode
TTITLE0=Deixa de banca (com Reginaldo Rossi)
TTITLE1=Problema meu
TTITLE2=Deus me livre (ao vivo)
TTITLE3=Dou a vida por um beijo
TTITLE4=É o amor
TTITLE5=Estou mal (ao vivo)
TTITLE6=Que pena
TTITLE7=Preciso desse amor (ao vivo)
TTITLE8=Me leva junto com você (ao vivo)
TTITLE9=Perdoa
TTITLE10=Cigana (ao vivo)
TTITLE11=Vem me amar
TTITLE12=Sem você aqui comigo
TTITLE13=Dizer não
TTITLE14=Você não sabe de mim (você sabe de mim)
TTITLE15=Esqueça
TTITLE16=Perdi você (ao vivo)
TTITLE17=Maravilha (ao vivo)
TTITLE18=Desculpe, mas eu vou chorar
TTITLE19=Preciso Dar Um Tempo (ao vivo)
EXTD=YEAR: 2005
EXTT0=
EXTT1=
EXTT2=
EXTT3=
EXTT4=
EXTT5=
EXTT6=
EXTT7=
EXTT8=
EXTT9=
EXTT10=
EXTT11=
EXTT12=
EXTT13=
EXTT14=
EXTT15=
EXTT16=
EXTT17=
EXTT18=
EXTT19=
PLAYORDER=
